%TF.GenerationSoftware,KiCad,Pcbnew,9.0.1*%
%TF.CreationDate,2025-09-14T18:57:03-07:00*%
%TF.ProjectId,myFirstPCB,6d794669-7273-4745-9043-422e6b696361,rev?*%
%TF.SameCoordinates,Original*%
%TF.FileFunction,Legend,Top*%
%TF.FilePolarity,Positive*%
%FSLAX46Y46*%
G04 Gerber Fmt 4.6, Leading zero omitted, Abs format (unit mm)*
G04 Created by KiCad (PCBNEW 9.0.1) date 2025-09-14 18:57:03*
%MOMM*%
%LPD*%
G01*
G04 APERTURE LIST*
%ADD10C,0.100000*%
%ADD11C,0.150000*%
%ADD12C,0.120000*%
G04 APERTURE END LIST*
D10*
X136780074Y-109372419D02*
X136303884Y-109372419D01*
X136303884Y-109372419D02*
X136303884Y-108372419D01*
X137256265Y-109372419D02*
X137161027Y-109324800D01*
X137161027Y-109324800D02*
X137113408Y-109277180D01*
X137113408Y-109277180D02*
X137065789Y-109181942D01*
X137065789Y-109181942D02*
X137065789Y-108896228D01*
X137065789Y-108896228D02*
X137113408Y-108800990D01*
X137113408Y-108800990D02*
X137161027Y-108753371D01*
X137161027Y-108753371D02*
X137256265Y-108705752D01*
X137256265Y-108705752D02*
X137399122Y-108705752D01*
X137399122Y-108705752D02*
X137494360Y-108753371D01*
X137494360Y-108753371D02*
X137541979Y-108800990D01*
X137541979Y-108800990D02*
X137589598Y-108896228D01*
X137589598Y-108896228D02*
X137589598Y-109181942D01*
X137589598Y-109181942D02*
X137541979Y-109277180D01*
X137541979Y-109277180D02*
X137494360Y-109324800D01*
X137494360Y-109324800D02*
X137399122Y-109372419D01*
X137399122Y-109372419D02*
X137256265Y-109372419D01*
X138161027Y-109372419D02*
X138065789Y-109324800D01*
X138065789Y-109324800D02*
X138018170Y-109277180D01*
X138018170Y-109277180D02*
X137970551Y-109181942D01*
X137970551Y-109181942D02*
X137970551Y-108896228D01*
X137970551Y-108896228D02*
X138018170Y-108800990D01*
X138018170Y-108800990D02*
X138065789Y-108753371D01*
X138065789Y-108753371D02*
X138161027Y-108705752D01*
X138161027Y-108705752D02*
X138303884Y-108705752D01*
X138303884Y-108705752D02*
X138399122Y-108753371D01*
X138399122Y-108753371D02*
X138446741Y-108800990D01*
X138446741Y-108800990D02*
X138494360Y-108896228D01*
X138494360Y-108896228D02*
X138494360Y-109181942D01*
X138494360Y-109181942D02*
X138446741Y-109277180D01*
X138446741Y-109277180D02*
X138399122Y-109324800D01*
X138399122Y-109324800D02*
X138303884Y-109372419D01*
X138303884Y-109372419D02*
X138161027Y-109372419D01*
X138922932Y-109372419D02*
X138922932Y-108372419D01*
X139018170Y-108991466D02*
X139303884Y-109372419D01*
X139303884Y-108705752D02*
X138922932Y-109086704D01*
X140494361Y-109372419D02*
X140494361Y-108705752D01*
X140494361Y-108800990D02*
X140541980Y-108753371D01*
X140541980Y-108753371D02*
X140637218Y-108705752D01*
X140637218Y-108705752D02*
X140780075Y-108705752D01*
X140780075Y-108705752D02*
X140875313Y-108753371D01*
X140875313Y-108753371D02*
X140922932Y-108848609D01*
X140922932Y-108848609D02*
X140922932Y-109372419D01*
X140922932Y-108848609D02*
X140970551Y-108753371D01*
X140970551Y-108753371D02*
X141065789Y-108705752D01*
X141065789Y-108705752D02*
X141208646Y-108705752D01*
X141208646Y-108705752D02*
X141303885Y-108753371D01*
X141303885Y-108753371D02*
X141351504Y-108848609D01*
X141351504Y-108848609D02*
X141351504Y-109372419D01*
X141970551Y-109372419D02*
X141875313Y-109324800D01*
X141875313Y-109324800D02*
X141827694Y-109277180D01*
X141827694Y-109277180D02*
X141780075Y-109181942D01*
X141780075Y-109181942D02*
X141780075Y-108896228D01*
X141780075Y-108896228D02*
X141827694Y-108800990D01*
X141827694Y-108800990D02*
X141875313Y-108753371D01*
X141875313Y-108753371D02*
X141970551Y-108705752D01*
X141970551Y-108705752D02*
X142113408Y-108705752D01*
X142113408Y-108705752D02*
X142208646Y-108753371D01*
X142208646Y-108753371D02*
X142256265Y-108800990D01*
X142256265Y-108800990D02*
X142303884Y-108896228D01*
X142303884Y-108896228D02*
X142303884Y-109181942D01*
X142303884Y-109181942D02*
X142256265Y-109277180D01*
X142256265Y-109277180D02*
X142208646Y-109324800D01*
X142208646Y-109324800D02*
X142113408Y-109372419D01*
X142113408Y-109372419D02*
X141970551Y-109372419D01*
X142732456Y-109372419D02*
X142732456Y-108705752D01*
X142732456Y-108896228D02*
X142780075Y-108800990D01*
X142780075Y-108800990D02*
X142827694Y-108753371D01*
X142827694Y-108753371D02*
X142922932Y-108705752D01*
X142922932Y-108705752D02*
X143018170Y-108705752D01*
X143732456Y-109324800D02*
X143637218Y-109372419D01*
X143637218Y-109372419D02*
X143446742Y-109372419D01*
X143446742Y-109372419D02*
X143351504Y-109324800D01*
X143351504Y-109324800D02*
X143303885Y-109229561D01*
X143303885Y-109229561D02*
X143303885Y-108848609D01*
X143303885Y-108848609D02*
X143351504Y-108753371D01*
X143351504Y-108753371D02*
X143446742Y-108705752D01*
X143446742Y-108705752D02*
X143637218Y-108705752D01*
X143637218Y-108705752D02*
X143732456Y-108753371D01*
X143732456Y-108753371D02*
X143780075Y-108848609D01*
X143780075Y-108848609D02*
X143780075Y-108943847D01*
X143780075Y-108943847D02*
X143303885Y-109039085D01*
X144827695Y-108705752D02*
X145208647Y-108705752D01*
X144970552Y-108372419D02*
X144970552Y-109229561D01*
X144970552Y-109229561D02*
X145018171Y-109324800D01*
X145018171Y-109324800D02*
X145113409Y-109372419D01*
X145113409Y-109372419D02*
X145208647Y-109372419D01*
X145922933Y-109324800D02*
X145827695Y-109372419D01*
X145827695Y-109372419D02*
X145637219Y-109372419D01*
X145637219Y-109372419D02*
X145541981Y-109324800D01*
X145541981Y-109324800D02*
X145494362Y-109229561D01*
X145494362Y-109229561D02*
X145494362Y-108848609D01*
X145494362Y-108848609D02*
X145541981Y-108753371D01*
X145541981Y-108753371D02*
X145637219Y-108705752D01*
X145637219Y-108705752D02*
X145827695Y-108705752D01*
X145827695Y-108705752D02*
X145922933Y-108753371D01*
X145922933Y-108753371D02*
X145970552Y-108848609D01*
X145970552Y-108848609D02*
X145970552Y-108943847D01*
X145970552Y-108943847D02*
X145494362Y-109039085D01*
X146303886Y-109372419D02*
X146827695Y-108705752D01*
X146303886Y-108705752D02*
X146827695Y-109372419D01*
X147065791Y-108705752D02*
X147446743Y-108705752D01*
X147208648Y-108372419D02*
X147208648Y-109229561D01*
X147208648Y-109229561D02*
X147256267Y-109324800D01*
X147256267Y-109324800D02*
X147351505Y-109372419D01*
X147351505Y-109372419D02*
X147446743Y-109372419D01*
X134803884Y-106372419D02*
X134803884Y-105372419D01*
X136041979Y-106372419D02*
X136041979Y-105705752D01*
X136041979Y-105800990D02*
X136089598Y-105753371D01*
X136089598Y-105753371D02*
X136184836Y-105705752D01*
X136184836Y-105705752D02*
X136327693Y-105705752D01*
X136327693Y-105705752D02*
X136422931Y-105753371D01*
X136422931Y-105753371D02*
X136470550Y-105848609D01*
X136470550Y-105848609D02*
X136470550Y-106372419D01*
X136470550Y-105848609D02*
X136518169Y-105753371D01*
X136518169Y-105753371D02*
X136613407Y-105705752D01*
X136613407Y-105705752D02*
X136756264Y-105705752D01*
X136756264Y-105705752D02*
X136851503Y-105753371D01*
X136851503Y-105753371D02*
X136899122Y-105848609D01*
X136899122Y-105848609D02*
X136899122Y-106372419D01*
X137803883Y-106372419D02*
X137803883Y-105848609D01*
X137803883Y-105848609D02*
X137756264Y-105753371D01*
X137756264Y-105753371D02*
X137661026Y-105705752D01*
X137661026Y-105705752D02*
X137470550Y-105705752D01*
X137470550Y-105705752D02*
X137375312Y-105753371D01*
X137803883Y-106324800D02*
X137708645Y-106372419D01*
X137708645Y-106372419D02*
X137470550Y-106372419D01*
X137470550Y-106372419D02*
X137375312Y-106324800D01*
X137375312Y-106324800D02*
X137327693Y-106229561D01*
X137327693Y-106229561D02*
X137327693Y-106134323D01*
X137327693Y-106134323D02*
X137375312Y-106039085D01*
X137375312Y-106039085D02*
X137470550Y-105991466D01*
X137470550Y-105991466D02*
X137708645Y-105991466D01*
X137708645Y-105991466D02*
X137803883Y-105943847D01*
X138708645Y-106372419D02*
X138708645Y-105372419D01*
X138708645Y-106324800D02*
X138613407Y-106372419D01*
X138613407Y-106372419D02*
X138422931Y-106372419D01*
X138422931Y-106372419D02*
X138327693Y-106324800D01*
X138327693Y-106324800D02*
X138280074Y-106277180D01*
X138280074Y-106277180D02*
X138232455Y-106181942D01*
X138232455Y-106181942D02*
X138232455Y-105896228D01*
X138232455Y-105896228D02*
X138280074Y-105800990D01*
X138280074Y-105800990D02*
X138327693Y-105753371D01*
X138327693Y-105753371D02*
X138422931Y-105705752D01*
X138422931Y-105705752D02*
X138613407Y-105705752D01*
X138613407Y-105705752D02*
X138708645Y-105753371D01*
X139565788Y-106324800D02*
X139470550Y-106372419D01*
X139470550Y-106372419D02*
X139280074Y-106372419D01*
X139280074Y-106372419D02*
X139184836Y-106324800D01*
X139184836Y-106324800D02*
X139137217Y-106229561D01*
X139137217Y-106229561D02*
X139137217Y-105848609D01*
X139137217Y-105848609D02*
X139184836Y-105753371D01*
X139184836Y-105753371D02*
X139280074Y-105705752D01*
X139280074Y-105705752D02*
X139470550Y-105705752D01*
X139470550Y-105705752D02*
X139565788Y-105753371D01*
X139565788Y-105753371D02*
X139613407Y-105848609D01*
X139613407Y-105848609D02*
X139613407Y-105943847D01*
X139613407Y-105943847D02*
X139137217Y-106039085D01*
X141232455Y-106372419D02*
X141232455Y-105848609D01*
X141232455Y-105848609D02*
X141184836Y-105753371D01*
X141184836Y-105753371D02*
X141089598Y-105705752D01*
X141089598Y-105705752D02*
X140899122Y-105705752D01*
X140899122Y-105705752D02*
X140803884Y-105753371D01*
X141232455Y-106324800D02*
X141137217Y-106372419D01*
X141137217Y-106372419D02*
X140899122Y-106372419D01*
X140899122Y-106372419D02*
X140803884Y-106324800D01*
X140803884Y-106324800D02*
X140756265Y-106229561D01*
X140756265Y-106229561D02*
X140756265Y-106134323D01*
X140756265Y-106134323D02*
X140803884Y-106039085D01*
X140803884Y-106039085D02*
X140899122Y-105991466D01*
X140899122Y-105991466D02*
X141137217Y-105991466D01*
X141137217Y-105991466D02*
X141232455Y-105943847D01*
X142470551Y-106372419D02*
X142470551Y-105372419D01*
X142470551Y-105372419D02*
X142851503Y-105372419D01*
X142851503Y-105372419D02*
X142946741Y-105420038D01*
X142946741Y-105420038D02*
X142994360Y-105467657D01*
X142994360Y-105467657D02*
X143041979Y-105562895D01*
X143041979Y-105562895D02*
X143041979Y-105705752D01*
X143041979Y-105705752D02*
X142994360Y-105800990D01*
X142994360Y-105800990D02*
X142946741Y-105848609D01*
X142946741Y-105848609D02*
X142851503Y-105896228D01*
X142851503Y-105896228D02*
X142470551Y-105896228D01*
X144041979Y-106277180D02*
X143994360Y-106324800D01*
X143994360Y-106324800D02*
X143851503Y-106372419D01*
X143851503Y-106372419D02*
X143756265Y-106372419D01*
X143756265Y-106372419D02*
X143613408Y-106324800D01*
X143613408Y-106324800D02*
X143518170Y-106229561D01*
X143518170Y-106229561D02*
X143470551Y-106134323D01*
X143470551Y-106134323D02*
X143422932Y-105943847D01*
X143422932Y-105943847D02*
X143422932Y-105800990D01*
X143422932Y-105800990D02*
X143470551Y-105610514D01*
X143470551Y-105610514D02*
X143518170Y-105515276D01*
X143518170Y-105515276D02*
X143613408Y-105420038D01*
X143613408Y-105420038D02*
X143756265Y-105372419D01*
X143756265Y-105372419D02*
X143851503Y-105372419D01*
X143851503Y-105372419D02*
X143994360Y-105420038D01*
X143994360Y-105420038D02*
X144041979Y-105467657D01*
X144803884Y-105848609D02*
X144946741Y-105896228D01*
X144946741Y-105896228D02*
X144994360Y-105943847D01*
X144994360Y-105943847D02*
X145041979Y-106039085D01*
X145041979Y-106039085D02*
X145041979Y-106181942D01*
X145041979Y-106181942D02*
X144994360Y-106277180D01*
X144994360Y-106277180D02*
X144946741Y-106324800D01*
X144946741Y-106324800D02*
X144851503Y-106372419D01*
X144851503Y-106372419D02*
X144470551Y-106372419D01*
X144470551Y-106372419D02*
X144470551Y-105372419D01*
X144470551Y-105372419D02*
X144803884Y-105372419D01*
X144803884Y-105372419D02*
X144899122Y-105420038D01*
X144899122Y-105420038D02*
X144946741Y-105467657D01*
X144946741Y-105467657D02*
X144994360Y-105562895D01*
X144994360Y-105562895D02*
X144994360Y-105658133D01*
X144994360Y-105658133D02*
X144946741Y-105753371D01*
X144946741Y-105753371D02*
X144899122Y-105800990D01*
X144899122Y-105800990D02*
X144803884Y-105848609D01*
X144803884Y-105848609D02*
X144470551Y-105848609D01*
X146137218Y-105705752D02*
X146327694Y-106372419D01*
X146327694Y-106372419D02*
X146518170Y-105896228D01*
X146518170Y-105896228D02*
X146708646Y-106372419D01*
X146708646Y-106372419D02*
X146899122Y-105705752D01*
X147422932Y-106372419D02*
X147327694Y-106324800D01*
X147327694Y-106324800D02*
X147280075Y-106277180D01*
X147280075Y-106277180D02*
X147232456Y-106181942D01*
X147232456Y-106181942D02*
X147232456Y-105896228D01*
X147232456Y-105896228D02*
X147280075Y-105800990D01*
X147280075Y-105800990D02*
X147327694Y-105753371D01*
X147327694Y-105753371D02*
X147422932Y-105705752D01*
X147422932Y-105705752D02*
X147565789Y-105705752D01*
X147565789Y-105705752D02*
X147661027Y-105753371D01*
X147661027Y-105753371D02*
X147708646Y-105800990D01*
X147708646Y-105800990D02*
X147756265Y-105896228D01*
X147756265Y-105896228D02*
X147756265Y-106181942D01*
X147756265Y-106181942D02*
X147708646Y-106277180D01*
X147708646Y-106277180D02*
X147661027Y-106324800D01*
X147661027Y-106324800D02*
X147565789Y-106372419D01*
X147565789Y-106372419D02*
X147422932Y-106372419D01*
X148089599Y-105705752D02*
X148280075Y-106372419D01*
X148280075Y-106372419D02*
X148470551Y-105896228D01*
X148470551Y-105896228D02*
X148661027Y-106372419D01*
X148661027Y-106372419D02*
X148851503Y-105705752D01*
D11*
X139454819Y-142666666D02*
X138978628Y-142999999D01*
X139454819Y-143238094D02*
X138454819Y-143238094D01*
X138454819Y-143238094D02*
X138454819Y-142857142D01*
X138454819Y-142857142D02*
X138502438Y-142761904D01*
X138502438Y-142761904D02*
X138550057Y-142714285D01*
X138550057Y-142714285D02*
X138645295Y-142666666D01*
X138645295Y-142666666D02*
X138788152Y-142666666D01*
X138788152Y-142666666D02*
X138883390Y-142714285D01*
X138883390Y-142714285D02*
X138931009Y-142761904D01*
X138931009Y-142761904D02*
X138978628Y-142857142D01*
X138978628Y-142857142D02*
X138978628Y-143238094D01*
X139454819Y-141714285D02*
X139454819Y-142285713D01*
X139454819Y-141999999D02*
X138454819Y-141999999D01*
X138454819Y-141999999D02*
X138597676Y-142095237D01*
X138597676Y-142095237D02*
X138692914Y-142190475D01*
X138692914Y-142190475D02*
X138740533Y-142285713D01*
X144266905Y-147414819D02*
X144266905Y-146414819D01*
X144266905Y-146414819D02*
X144505000Y-146414819D01*
X144505000Y-146414819D02*
X144647857Y-146462438D01*
X144647857Y-146462438D02*
X144743095Y-146557676D01*
X144743095Y-146557676D02*
X144790714Y-146652914D01*
X144790714Y-146652914D02*
X144838333Y-146843390D01*
X144838333Y-146843390D02*
X144838333Y-146986247D01*
X144838333Y-146986247D02*
X144790714Y-147176723D01*
X144790714Y-147176723D02*
X144743095Y-147271961D01*
X144743095Y-147271961D02*
X144647857Y-147367200D01*
X144647857Y-147367200D02*
X144505000Y-147414819D01*
X144505000Y-147414819D02*
X144266905Y-147414819D01*
X145790714Y-147414819D02*
X145219286Y-147414819D01*
X145505000Y-147414819D02*
X145505000Y-146414819D01*
X145505000Y-146414819D02*
X145409762Y-146557676D01*
X145409762Y-146557676D02*
X145314524Y-146652914D01*
X145314524Y-146652914D02*
X145219286Y-146700533D01*
X141919285Y-112930887D02*
X142062142Y-112978506D01*
X142062142Y-112978506D02*
X142109761Y-113026125D01*
X142109761Y-113026125D02*
X142157380Y-113121363D01*
X142157380Y-113121363D02*
X142157380Y-113264220D01*
X142157380Y-113264220D02*
X142109761Y-113359458D01*
X142109761Y-113359458D02*
X142062142Y-113407078D01*
X142062142Y-113407078D02*
X141966904Y-113454697D01*
X141966904Y-113454697D02*
X141585952Y-113454697D01*
X141585952Y-113454697D02*
X141585952Y-112454697D01*
X141585952Y-112454697D02*
X141919285Y-112454697D01*
X141919285Y-112454697D02*
X142014523Y-112502316D01*
X142014523Y-112502316D02*
X142062142Y-112549935D01*
X142062142Y-112549935D02*
X142109761Y-112645173D01*
X142109761Y-112645173D02*
X142109761Y-112740411D01*
X142109761Y-112740411D02*
X142062142Y-112835649D01*
X142062142Y-112835649D02*
X142014523Y-112883268D01*
X142014523Y-112883268D02*
X141919285Y-112930887D01*
X141919285Y-112930887D02*
X141585952Y-112930887D01*
X142443095Y-112454697D02*
X143014523Y-112454697D01*
X142728809Y-113454697D02*
X142728809Y-112454697D01*
X143871666Y-113454697D02*
X143300238Y-113454697D01*
X143585952Y-113454697D02*
X143585952Y-112454697D01*
X143585952Y-112454697D02*
X143490714Y-112597554D01*
X143490714Y-112597554D02*
X143395476Y-112692792D01*
X143395476Y-112692792D02*
X143300238Y-112740411D01*
X133165571Y-123987578D02*
X134308429Y-123987578D01*
X133737000Y-124559006D02*
X133737000Y-123416149D01*
D12*
%TO.C,R1*%
X137750000Y-140800000D02*
X137250000Y-140800000D01*
X137750000Y-140800000D02*
X137750000Y-141300000D01*
X135250000Y-140800000D02*
X135750000Y-140800000D01*
X135250000Y-140800000D02*
X135250000Y-141300000D01*
X137750000Y-144200000D02*
X137750000Y-143700000D01*
X137750000Y-144200000D02*
X137250000Y-144200000D01*
X135250000Y-144200000D02*
X135250000Y-143700000D01*
X135250000Y-144200000D02*
X135750000Y-144200000D01*
%TO.C,D1*%
X147565000Y-144545000D02*
X147565000Y-141455000D01*
X147565000Y-144544830D02*
G75*
G02*
X142015000Y-143000048I-2560000J1544830D01*
G01*
X142015000Y-142999952D02*
G75*
G02*
X147565000Y-141455170I2990000J-48D01*
G01*
X147505000Y-143000000D02*
G75*
G02*
X142505000Y-143000000I-2500000J0D01*
G01*
X142505000Y-143000000D02*
G75*
G02*
X147505000Y-143000000I2500000J0D01*
G01*
%TO.C,BT1*%
X131555000Y-121849878D02*
X131555000Y-122349878D01*
X131555000Y-121849878D02*
X132705000Y-121849878D01*
X131555000Y-126149878D02*
X131555000Y-125649878D01*
X131555000Y-126149878D02*
X132705000Y-126149878D01*
X132705000Y-121849878D02*
X132705000Y-122349878D01*
X132705000Y-126149878D02*
X132705000Y-125649878D01*
X132295000Y-121849878D02*
G75*
G02*
X152255000Y-122649878I9909758J-2152544D01*
G01*
X152255000Y-125349878D02*
G75*
G02*
X132295000Y-126149878I-10050242J1352544D01*
G01*
%TD*%
M02*
